<mxfile host="app.diagrams.net" modified="2023-09-14T16:35:24.163Z" agent="Mozilla/5.0 (Windows NT 10.0; Win64; x64) AppleWebKit/537.36 (KHTML, like Gecko) Chrome/116.0.0.0 Safari/537.36" etag="zXIHeU-oTWFeEpZJBMlV" version="21.6.9" type="google">
  <diagram name="PÃ¡gina-1" id="3sVQfrdRevif6Odf9nG8">
    <mxGraphModel grid="1" page="1" gridSize="10" guides="1" tooltips="1" connect="1" arrows="1" fold="1" pageScale="1" pageWidth="827" pageHeight="1169" math="0" shadow="0">
      <root>
        <mxCell id="0" />
        <mxCell id="1" parent="0" />
        <mxCell id="WwdtE9RKTWUhPfPTeJh7-15" style="edgeStyle=orthogonalEdgeStyle;rounded=0;orthogonalLoop=1;jettySize=auto;html=1;entryX=1.012;entryY=0.26;entryDx=0;entryDy=0;entryPerimeter=0;" edge="1" parent="1" source="t0hAt-ErPhpD4sTweukp-1" target="WwdtE9RKTWUhPfPTeJh7-4">
          <mxGeometry relative="1" as="geometry">
            <Array as="points">
              <mxPoint x="-140" y="249" />
            </Array>
          </mxGeometry>
        </mxCell>
        <mxCell id="WwdtE9RKTWUhPfPTeJh7-16" value="*" style="edgeLabel;html=1;align=center;verticalAlign=middle;resizable=0;points=[];" connectable="0" vertex="1" parent="WwdtE9RKTWUhPfPTeJh7-15">
          <mxGeometry x="0.8938" y="-2" relative="1" as="geometry">
            <mxPoint x="-11" y="-7" as="offset" />
          </mxGeometry>
        </mxCell>
        <mxCell id="WwdtE9RKTWUhPfPTeJh7-35" style="edgeStyle=orthogonalEdgeStyle;rounded=0;orthogonalLoop=1;jettySize=auto;html=1;" edge="1" parent="1" source="t0hAt-ErPhpD4sTweukp-1">
          <mxGeometry relative="1" as="geometry">
            <Array as="points">
              <mxPoint x="180" y="1370" />
            </Array>
            <mxPoint x="-480" y="1370" as="targetPoint" />
          </mxGeometry>
        </mxCell>
        <mxCell id="WwdtE9RKTWUhPfPTeJh7-36" value="*" style="edgeLabel;html=1;align=center;verticalAlign=middle;resizable=0;points=[];" connectable="0" vertex="1" parent="WwdtE9RKTWUhPfPTeJh7-35">
          <mxGeometry x="0.9486" y="-5" relative="1" as="geometry">
            <mxPoint x="-24" y="-5" as="offset" />
          </mxGeometry>
        </mxCell>
        <mxCell id="WwdtE9RKTWUhPfPTeJh7-38" style="edgeStyle=orthogonalEdgeStyle;rounded=0;orthogonalLoop=1;jettySize=auto;html=1;" edge="1" parent="1" source="t0hAt-ErPhpD4sTweukp-1">
          <mxGeometry relative="1" as="geometry">
            <mxPoint x="-480" y="1320" as="targetPoint" />
            <Array as="points">
              <mxPoint x="140" y="1320" />
            </Array>
          </mxGeometry>
        </mxCell>
        <mxCell id="WwdtE9RKTWUhPfPTeJh7-39" value="1" style="edgeLabel;html=1;align=center;verticalAlign=middle;resizable=0;points=[];" connectable="0" vertex="1" parent="WwdtE9RKTWUhPfPTeJh7-38">
          <mxGeometry x="0.9503" y="-3" relative="1" as="geometry">
            <mxPoint x="-23" y="-7" as="offset" />
          </mxGeometry>
        </mxCell>
        <mxCell id="t0hAt-ErPhpD4sTweukp-1" value="&lt;p style=&quot;margin:0px;margin-top:4px;text-align:center;&quot;&gt;&lt;br&gt;&lt;b&gt;&lt;font style=&quot;font-size: 18px;&quot;&gt;Sistema&lt;/font&gt;&lt;/b&gt;&lt;/p&gt;&lt;hr size=&quot;1&quot;&gt;&lt;p style=&quot;margin:0px;margin-left:4px;&quot;&gt;&lt;/p&gt;&lt;div&gt;&lt;br&gt;&lt;/div&gt;&lt;div&gt;&lt;br&gt;&lt;/div&gt;&lt;div&gt;&amp;nbsp;cargarDepartamentos(): Set &amp;lt;Departamento&amp;gt;&lt;/div&gt;&lt;div&gt;&amp;nbsp;cargarUsuarios(): Set &amp;lt;Usuario&amp;gt;&lt;/div&gt;&lt;div&gt;&amp;nbsp;cargarPaquetes(): Ste &amp;lt;Paquete&amp;gt;&lt;br&gt;&lt;/div&gt;&lt;p style=&quot;border-color: var(--border-color); margin: 0px 0px 0px 4px;&quot;&gt;&lt;font style=&quot;font-size: 12px;&quot;&gt;&lt;font style=&quot;font-size: 12px;&quot;&gt;altaUsuario(provotur : Bool, data : DtUsuario)&lt;/font&gt;&lt;br&gt;&lt;/font&gt;&lt;/p&gt;&lt;p style=&quot;border-color: var(--border-color); margin: 0px 0px 0px 4px;&quot;&gt;&lt;font style=&quot;font-size: 12px;&quot;&gt;obtenerDatosDepartamento(nombre: String)&lt;/font&gt;&lt;/p&gt;&lt;p style=&quot;border-color: var(--border-color); margin: 0px 0px 0px 4px;&quot;&gt;&lt;font style=&quot;font-size: 12px;&quot;&gt;obtenerDatosDepartamento(d: Departamento)&lt;/font&gt;&lt;/p&gt;&lt;p style=&quot;border-color: var(--border-color); margin: 0px 0px 0px 4px;&quot;&gt;&lt;font style=&quot;font-size: 12px;&quot;&gt;listarProv(): Set &amp;lt;String&amp;gt;&lt;/font&gt;&lt;/p&gt;&lt;p style=&quot;border-color: var(--border-color); margin: 0px 0px 0px 4px;&quot;&gt;&lt;font style=&quot;font-size: 12px;&quot;&gt;listarTuris(): Set &amp;lt;String&amp;gt;&lt;/font&gt;&lt;/p&gt;&lt;p style=&quot;border-color: var(--border-color); margin: 0px 0px 0px 4px;&quot;&gt;&lt;font style=&quot;font-size: 12px;&quot;&gt;salidasVigentes(nombreAct: String): &lt;/font&gt;&lt;font style=&quot;font-size: 12px;&quot;&gt;Set &amp;lt;String&amp;gt;&lt;/font&gt;&lt;/p&gt;&lt;p style=&quot;border-color: var(--border-color); margin: 0px 0px 0px 4px;&quot;&gt;&lt;font style=&quot;font-size: 12px;&quot;&gt;buscarSalida(nombreSal: String): SalidaTuristica&lt;/font&gt;&lt;/p&gt;&lt;p style=&quot;border-color: var(--border-color); margin: 0px 0px 0px 4px;&quot;&gt;&lt;font style=&quot;font-size: 12px;&quot;&gt;altaInscripcion(nickTuris: String, nombreSal: String, cant: Int)&lt;/font&gt;&lt;/p&gt;&lt;p style=&quot;border-color: var(--border-color); margin: 0px 0px 0px 4px;&quot;&gt;&lt;font style=&quot;font-size: 12px;&quot;&gt;altaActividad(prov : String, dep : String, data : DtActTur)&lt;/font&gt;&lt;/p&gt;&lt;p style=&quot;border-color: var(--border-color); margin: 0px 0px 0px 4px;&quot;&gt;&lt;font style=&quot;font-size: 12px;&quot;&gt;modificarDatos(datosNuevos: DtModUser)&lt;/font&gt;&lt;/p&gt;&lt;p style=&quot;border-color: var(--border-color); margin: 0px 0px 0px 4px;&quot;&gt;&lt;font style=&quot;font-size: 12px;&quot;&gt;listarUsuarios(): Set &amp;lt;String&amp;gt;&lt;/font&gt;&lt;/p&gt;&lt;p style=&quot;border-color: var(--border-color); margin: 0px 0px 0px 4px;&quot;&gt;&lt;font style=&quot;font-size: 12px;&quot;&gt;listarDepartamentos(): Set &amp;lt;String&amp;gt;&lt;/font&gt;&lt;/p&gt;&lt;p style=&quot;border-color: var(--border-color); margin: 0px 0px 0px 4px;&quot;&gt;&lt;font style=&quot;font-size: 12px;&quot;&gt;obtenerDataUsuario(nick: String): DtUsuario&lt;/font&gt;&lt;/p&gt;&lt;p style=&quot;border-color: var(--border-color); margin: 0px 0px 0px 4px;&quot;&gt;&lt;font style=&quot;font-size: 12px;&quot;&gt;obtenerDataUsuarioPlus(nick: String): DtUsuario&lt;br&gt;&lt;/font&gt;&lt;/p&gt;&lt;p style=&quot;border-color: var(--border-color); margin: 0px 0px 0px 4px;&quot;&gt;&lt;font style=&quot;font-size: 12px;&quot;&gt;selecUsuario(nick: String)&lt;br&gt;&lt;/font&gt;&lt;/p&gt;&lt;p style=&quot;border-color: var(--border-color); margin: 0px 0px 0px 4px;&quot;&gt;&lt;font style=&quot;font-size: 12px;&quot;&gt;altaPaquete(dataPaquete: DtPaquete)&lt;br&gt;&lt;/font&gt;&lt;/p&gt;&lt;p style=&quot;border-color: var(--border-color); margin: 0px 0px 0px 4px;&quot;&gt;&lt;font style=&quot;font-size: 12px;&quot;&gt;listarPaquetesExistentes(): Set &amp;lt;String&amp;gt;&lt;br&gt;&lt;/font&gt;&lt;/p&gt;&lt;p style=&quot;border-color: var(--border-color); margin: 0px 0px 0px 4px;&quot;&gt;&lt;font style=&quot;font-size: 12px;&quot;&gt;seleccionarPaquete(nombre: String)&lt;/font&gt;&lt;/p&gt;&lt;p style=&quot;border-color: var(--border-color); margin: 0px 0px 0px 4px;&quot;&gt;&lt;font style=&quot;font-size: 12px;&quot;&gt;listarActividadesDepartamento(): &lt;/font&gt;&lt;font style=&quot;font-size: 12px;&quot;&gt;Set &amp;lt;String&amp;gt;&lt;br&gt;&lt;/font&gt;&lt;/p&gt;&lt;p style=&quot;border-color: var(--border-color); margin: 0px 0px 0px 4px;&quot;&gt;seleccionarActividadParaPaquete(nombreAct: String)&lt;/p&gt;&lt;p style=&quot;border-color: var(--border-color); margin: 0px 0px 0px 4px;&quot;&gt;imprimirInfoPaquete(nombre : String) : DtPaquete&lt;/p&gt;&lt;p style=&quot;border-color: var(--border-color); margin: 0px 0px 0px 4px;&quot;&gt;seleccionarDepartamento(nombreDep: String): &lt;font style=&quot;font-size: 12px;&quot;&gt;&lt;/font&gt;&lt;font style=&quot;font-size: 12px;&quot;&gt;Set &amp;lt;String&amp;gt;&lt;/font&gt;&lt;/p&gt;&lt;p style=&quot;border-color: var(--border-color); margin: 0px 0px 0px 4px;&quot;&gt;&lt;font style=&quot;font-size: 12px;&quot;&gt;seleccionarActividad(nombreAct: String)&lt;br&gt;&lt;/font&gt;&lt;/p&gt;&lt;p style=&quot;border-color: var(--border-color); margin: 0px 0px 0px 4px;&quot;&gt;&lt;font style=&quot;font-size: 12px;&quot;&gt;seleccionarActividadDt(nombreAct: String): DtActTur&lt;/font&gt;&lt;/p&gt;&lt;p style=&quot;border-color: var(--border-color); margin: 0px 0px 0px 4px;&quot;&gt;&lt;font style=&quot;font-size: 12px;&quot;&gt;verProveedorCA(nombreAct: String): &lt;/font&gt;&lt;font style=&quot;font-size: 12px;&quot;&gt;&lt;/font&gt;&lt;font style=&quot;font-size: 12px;&quot;&gt;Set &amp;lt;String&amp;gt;&lt;/font&gt;&lt;font style=&quot;font-size: 12px;&quot;&gt;&lt;/font&gt;&lt;/p&gt;&lt;p style=&quot;border-color: var(--border-color); margin: 0px 0px 0px 4px;&quot;&gt;confirmarAltaSalTur(nombreAct: String, datos :DtSalidaTuristica)&lt;/p&gt;&lt;p style=&quot;border-color: var(--border-color); margin: 0px 0px 0px 4px;&quot;&gt;seleccionarActividadST(nombreAct: String): &lt;font style=&quot;font-size: 12px;&quot;&gt;&lt;/font&gt;&lt;font style=&quot;font-size: 12px;&quot;&gt;Set &amp;lt;String&amp;gt;&lt;/font&gt;&lt;font style=&quot;font-size: 12px;&quot;&gt;&lt;/font&gt;&lt;/p&gt;&lt;p style=&quot;border-color: var(--border-color); margin: 0px 0px 0px 4px;&quot;&gt;seleccionarSalida(nombreSal: String): DtSalidaTuristica&lt;/p&gt;&lt;p style=&quot;border-color: var(--border-color); margin: 0px 0px 0px 4px;&quot;&gt;altaDepartamento(data: DtDepartamento)&lt;/p&gt;&lt;p style=&quot;border-color: var(--border-color); margin: 0px 0px 0px 4px;&quot;&gt;verActividadesCU(nickProv: String): &lt;font style=&quot;font-size: 12px;&quot;&gt;&lt;/font&gt;&lt;font style=&quot;font-size: 12px;&quot;&gt;Set &amp;lt;String&amp;gt;&lt;/font&gt;&lt;font style=&quot;font-size: 12px;&quot;&gt;&lt;/font&gt;&lt;/p&gt;&lt;p style=&quot;border-color: var(--border-color); margin: 0px 0px 0px 4px;&quot;&gt;verSalidasCU(nombreAct: String): &lt;font style=&quot;font-size: 12px;&quot;&gt;&lt;/font&gt;&lt;font style=&quot;font-size: 12px;&quot;&gt;Set &amp;lt;String&amp;gt;&lt;/font&gt;&lt;/p&gt;&lt;p style=&quot;border-color: var(--border-color); margin: 0px 0px 0px 4px;&quot;&gt;&lt;font style=&quot;font-size: 12px;&quot;&gt;verInscripcionesCU(nickTur: String): &lt;/font&gt;&lt;font style=&quot;font-size: 12px;&quot;&gt;Set &amp;lt;String&amp;gt;&lt;/font&gt;&lt;/p&gt;" style="verticalAlign=top;align=left;overflow=fill;fontSize=12;fontFamily=Helvetica;html=1;whiteSpace=wrap;" vertex="1" parent="1">
          <mxGeometry x="-10" y="70" width="440" height="600" as="geometry" />
        </mxCell>
        <mxCell id="WwdtE9RKTWUhPfPTeJh7-24" style="edgeStyle=orthogonalEdgeStyle;rounded=0;orthogonalLoop=1;jettySize=auto;html=1;entryX=-0.01;entryY=0.428;entryDx=0;entryDy=0;entryPerimeter=0;startArrow=classic;startFill=1;" edge="1" parent="1" source="KXZ4tvlXdRsElCx-VWko-1" target="WwdtE9RKTWUhPfPTeJh7-18">
          <mxGeometry relative="1" as="geometry">
            <Array as="points">
              <mxPoint x="-1520" y="549" />
              <mxPoint x="-1520" y="549" />
            </Array>
          </mxGeometry>
        </mxCell>
        <mxCell id="WwdtE9RKTWUhPfPTeJh7-25" value="*" style="edgeLabel;html=1;align=center;verticalAlign=middle;resizable=0;points=[];" connectable="0" vertex="1" parent="WwdtE9RKTWUhPfPTeJh7-24">
          <mxGeometry x="0.8068" y="1" relative="1" as="geometry">
            <mxPoint x="9" y="-8" as="offset" />
          </mxGeometry>
        </mxCell>
        <mxCell id="pjNQI_vsb8KBu9a4xdU9-1" value="1" style="edgeLabel;html=1;align=center;verticalAlign=middle;resizable=0;points=[];" connectable="0" vertex="1" parent="WwdtE9RKTWUhPfPTeJh7-24">
          <mxGeometry x="-0.8044" y="2" relative="1" as="geometry">
            <mxPoint x="-13" y="-7" as="offset" />
          </mxGeometry>
        </mxCell>
        <mxCell id="KXZ4tvlXdRsElCx-VWko-1" value="Departamento" style="swimlane;fontStyle=1;align=center;verticalAlign=top;childLayout=stackLayout;horizontal=1;startSize=26;horizontalStack=0;resizeParent=1;resizeParentMax=0;resizeLast=0;collapsible=1;marginBottom=0;whiteSpace=wrap;html=1;fontSize=16;" vertex="1" parent="1">
          <mxGeometry x="-1990" y="420" width="430" height="330" as="geometry" />
        </mxCell>
        <mxCell id="KXZ4tvlXdRsElCx-VWko-2" value="&lt;div style=&quot;font-size: 15px;&quot;&gt;&lt;font style=&quot;font-size: 15px;&quot;&gt;nombre: String&lt;/font&gt;&lt;/div&gt;&lt;div style=&quot;font-size: 15px;&quot;&gt;&lt;font style=&quot;font-size: 15px;&quot;&gt;descr: String&lt;br&gt;&lt;/font&gt;&lt;/div&gt;&lt;div style=&quot;font-size: 15px;&quot;&gt;&lt;font style=&quot;font-size: 15px;&quot;&gt;url: String&lt;/font&gt;&lt;br&gt;&lt;/div&gt;&lt;div&gt;&lt;br&gt;&lt;/div&gt;" style="text;strokeColor=none;fillColor=none;align=left;verticalAlign=top;spacingLeft=4;spacingRight=4;overflow=hidden;rotatable=0;points=[[0,0.5],[1,0.5]];portConstraint=eastwest;whiteSpace=wrap;html=1;fontSize=16;" vertex="1" parent="KXZ4tvlXdRsElCx-VWko-1">
          <mxGeometry y="26" width="430" height="64" as="geometry" />
        </mxCell>
        <mxCell id="KXZ4tvlXdRsElCx-VWko-3" value="" style="line;strokeWidth=1;fillColor=none;align=left;verticalAlign=middle;spacingTop=-1;spacingLeft=3;spacingRight=3;rotatable=0;labelPosition=right;points=[];portConstraint=eastwest;strokeColor=inherit;fontSize=16;" vertex="1" parent="KXZ4tvlXdRsElCx-VWko-1">
          <mxGeometry y="90" width="430" height="8" as="geometry" />
        </mxCell>
        <mxCell id="KXZ4tvlXdRsElCx-VWko-4" value="&lt;div style=&quot;font-size: 15px;&quot;&gt;&lt;span style=&quot;background-color: initial;&quot;&gt;&lt;font style=&quot;font-size: 15px;&quot;&gt;crearAct(DtActTur) : ActividadTuristica&lt;/font&gt;&lt;/span&gt;&lt;/div&gt;&lt;div style=&quot;font-size: 15px;&quot;&gt;&lt;font style=&quot;font-size: 15px;&quot;&gt;listarActividadesPaquete(String): Set &amp;lt;String&amp;gt;&lt;br&gt;&lt;/font&gt;&lt;/div&gt;&lt;div style=&quot;font-size: 15px;&quot;&gt;&lt;font style=&quot;font-size: 15px;&quot;&gt;printActividades(): &lt;/font&gt;&lt;font style=&quot;font-size: 15px;&quot;&gt;Set &amp;lt;String&amp;gt;&lt;/font&gt;&lt;/div&gt;&lt;font style=&quot;font-size: 15px;&quot;&gt;seleccActividad(String): ActividadTuristica&lt;br&gt;&lt;/font&gt;&lt;div style=&quot;font-size: 15px;&quot;&gt;&lt;font style=&quot;font-size: 15px;&quot;&gt;selecActividadV(String): DtActTur&lt;/font&gt;&lt;/div&gt;&lt;div style=&quot;font-size: 15px;&quot;&gt;&lt;font style=&quot;font-size: 15px;&quot;&gt;listProveedores(String): Set &amp;lt;String&amp;gt;&lt;/font&gt;&lt;/div&gt;&lt;div style=&quot;font-size: 15px;&quot;&gt;&lt;font style=&quot;font-size: 15px;&quot;&gt;confirmarAltaSalTur(String, DtSalidaTuristica): ActividadTuristica&lt;br&gt;&lt;/font&gt;&lt;/div&gt;&lt;div style=&quot;font-size: 15px;&quot;&gt;&lt;font style=&quot;font-size: 15px;&quot;&gt;listSalidas(String): Set &amp;lt;String&amp;gt;&lt;/font&gt;&lt;br&gt;&lt;/div&gt;" style="text;strokeColor=none;fillColor=none;align=left;verticalAlign=top;spacingLeft=4;spacingRight=4;overflow=hidden;rotatable=0;points=[[0,0.5],[1,0.5]];portConstraint=eastwest;whiteSpace=wrap;html=1;fontSize=16;" vertex="1" parent="KXZ4tvlXdRsElCx-VWko-1">
          <mxGeometry y="98" width="430" height="232" as="geometry" />
        </mxCell>
        <mxCell id="WwdtE9RKTWUhPfPTeJh7-1" value="Usuario" style="swimlane;fontStyle=1;align=center;verticalAlign=top;childLayout=stackLayout;horizontal=1;startSize=26;horizontalStack=0;resizeParent=1;resizeParentMax=0;resizeLast=0;collapsible=1;marginBottom=0;whiteSpace=wrap;html=1;fontSize=16;" vertex="1" parent="1">
          <mxGeometry x="-520" y="60" width="250" height="330" as="geometry" />
        </mxCell>
        <mxCell id="WwdtE9RKTWUhPfPTeJh7-2" value="&lt;font style=&quot;font-size: 15px;&quot;&gt;nick: String&lt;br&gt;name : String&lt;br&gt;apellido : String&lt;br&gt;email : String&lt;br&gt;fechaNac : LocaDate&lt;/font&gt;" style="text;strokeColor=none;fillColor=none;align=left;verticalAlign=top;spacingLeft=4;spacingRight=4;overflow=hidden;rotatable=0;points=[[0,0.5],[1,0.5]];portConstraint=eastwest;whiteSpace=wrap;html=1;fontSize=16;" vertex="1" parent="WwdtE9RKTWUhPfPTeJh7-1">
          <mxGeometry y="26" width="250" height="104" as="geometry" />
        </mxCell>
        <mxCell id="WwdtE9RKTWUhPfPTeJh7-3" value="" style="line;strokeWidth=1;fillColor=none;align=left;verticalAlign=middle;spacingTop=-1;spacingLeft=3;spacingRight=3;rotatable=0;labelPosition=right;points=[];portConstraint=eastwest;strokeColor=inherit;fontSize=16;" vertex="1" parent="WwdtE9RKTWUhPfPTeJh7-1">
          <mxGeometry y="130" width="250" height="10" as="geometry" />
        </mxCell>
        <mxCell id="WwdtE9RKTWUhPfPTeJh7-4" value="&lt;font style=&quot;font-size: 15px;&quot;&gt;modificarDatos(DtModUser)&lt;br&gt;&lt;/font&gt;&lt;div style=&quot;font-size: 15px;&quot;&gt;&lt;font style=&quot;font-size: 15px;&quot;&gt;linkearAct(ActividadTuristica)&lt;/font&gt;&lt;/div&gt;&lt;div style=&quot;font-size: 15px;&quot;&gt;&lt;font style=&quot;font-size: 15px;&quot;&gt;esProveedor(): Boolean&lt;/font&gt;&lt;br&gt;&lt;/div&gt;" style="text;strokeColor=none;fillColor=none;align=left;verticalAlign=top;spacingLeft=4;spacingRight=4;overflow=hidden;rotatable=0;points=[[0,0.5],[1,0.5]];portConstraint=eastwest;whiteSpace=wrap;html=1;fontSize=16;" vertex="1" parent="WwdtE9RKTWUhPfPTeJh7-1">
          <mxGeometry y="140" width="250" height="190" as="geometry" />
        </mxCell>
        <mxCell id="KXZ4tvlXdRsElCx-VWko-5" value="" style="endArrow=none;html=1;rounded=0;fontSize=12;startSize=8;endSize=8;entryX=0.5;entryY=0;entryDx=0;entryDy=0;exitX=0.408;exitY=-0.004;exitDx=0;exitDy=0;exitPerimeter=0;" edge="1" parent="1" source="WwdtE9RKTWUhPfPTeJh7-5" target="WwdtE9RKTWUhPfPTeJh7-9">
          <mxGeometry width="50" height="50" relative="1" as="geometry">
            <mxPoint x="-611" y="440" as="sourcePoint" />
            <mxPoint x="-150" y="440" as="targetPoint" />
            <Array as="points">
              <mxPoint x="-606" y="420" />
              <mxPoint x="-170" y="420" />
            </Array>
          </mxGeometry>
        </mxCell>
        <mxCell id="WwdtE9RKTWUhPfPTeJh7-5" value="Proveedor" style="swimlane;fontStyle=1;align=center;verticalAlign=top;childLayout=stackLayout;horizontal=1;startSize=26;horizontalStack=0;resizeParent=1;resizeParentMax=0;resizeLast=0;collapsible=1;marginBottom=0;whiteSpace=wrap;html=1;fontSize=16;" vertex="1" parent="1">
          <mxGeometry x="-720" y="445" width="280" height="240" as="geometry" />
        </mxCell>
        <mxCell id="WwdtE9RKTWUhPfPTeJh7-6" value="&lt;div style=&quot;font-size: 15px;&quot;&gt;&lt;font style=&quot;font-size: 15px;&quot;&gt;desc: String&lt;br&gt;&lt;/font&gt;&lt;/div&gt;&lt;div style=&quot;font-size: 15px;&quot;&gt;&lt;font style=&quot;font-size: 15px;&quot;&gt;link: String&lt;font style=&quot;font-size: 15px;&quot;&gt;&lt;br&gt;&lt;/font&gt;&lt;/font&gt;&lt;/div&gt;" style="text;strokeColor=none;fillColor=none;align=left;verticalAlign=top;spacingLeft=4;spacingRight=4;overflow=hidden;rotatable=0;points=[[0,0.5],[1,0.5]];portConstraint=eastwest;whiteSpace=wrap;html=1;fontSize=16;" vertex="1" parent="WwdtE9RKTWUhPfPTeJh7-5">
          <mxGeometry y="26" width="280" height="54" as="geometry" />
        </mxCell>
        <mxCell id="WwdtE9RKTWUhPfPTeJh7-7" value="" style="line;strokeWidth=1;fillColor=none;align=left;verticalAlign=middle;spacingTop=-1;spacingLeft=3;spacingRight=3;rotatable=0;labelPosition=right;points=[];portConstraint=eastwest;strokeColor=inherit;fontSize=16;" vertex="1" parent="WwdtE9RKTWUhPfPTeJh7-5">
          <mxGeometry y="80" width="280" as="geometry" />
        </mxCell>
        <mxCell id="WwdtE9RKTWUhPfPTeJh7-17" value="" style="line;strokeWidth=2;html=1;" vertex="1" parent="WwdtE9RKTWUhPfPTeJh7-5">
          <mxGeometry y="80" width="280" height="10" as="geometry" />
        </mxCell>
        <mxCell id="WwdtE9RKTWUhPfPTeJh7-8" value="&lt;div&gt;&lt;font style=&quot;font-size: 15px;&quot;&gt;modificarDatos(DtModUser)&lt;br&gt;&lt;/font&gt;&lt;/div&gt;&lt;div&gt;&lt;font style=&quot;font-size: 15px;&quot;&gt;getData(): DtUsuario&lt;/font&gt;&lt;/div&gt;&lt;div&gt;&lt;font style=&quot;font-size: 15px;&quot;&gt;linkearAct(ActividadTuristica)&lt;/font&gt;&lt;/div&gt;&lt;div&gt;&lt;font style=&quot;font-size: 15px;&quot;&gt;esProveedor(): Boolean&lt;br&gt;&lt;/font&gt;&lt;/div&gt;&lt;div style=&quot;font-size: 15px;&quot;&gt;&lt;font style=&quot;font-size: 15px;&quot;&gt;listarActividades(): Set &amp;lt;String&amp;gt;&lt;/font&gt;&lt;/div&gt;&lt;div style=&quot;font-size: 15px;&quot;&gt;&lt;font style=&quot;font-size: 15px;&quot;&gt;listarSalidas(): Set &amp;lt;String&amp;gt;&lt;/font&gt;&lt;br&gt;&lt;/div&gt;&lt;div&gt;&lt;font style=&quot;font-size: 15px;&quot;&gt;seleccActividad(String): ActividadTuristica&lt;/font&gt;&lt;br&gt;&lt;/div&gt;" style="text;strokeColor=none;fillColor=none;align=left;verticalAlign=top;spacingLeft=4;spacingRight=4;overflow=hidden;rotatable=0;points=[[0,0.5],[1,0.5]];portConstraint=eastwest;whiteSpace=wrap;html=1;fontSize=16;" vertex="1" parent="WwdtE9RKTWUhPfPTeJh7-5">
          <mxGeometry y="90" width="280" height="150" as="geometry" />
        </mxCell>
        <mxCell id="KXZ4tvlXdRsElCx-VWko-6" value="" style="endArrow=block;html=1;rounded=0;fontSize=12;startSize=8;endSize=8;curved=1;endFill=0;" edge="1" parent="1">
          <mxGeometry width="50" height="50" relative="1" as="geometry">
            <mxPoint x="-422" y="420" as="sourcePoint" />
            <mxPoint x="-422" y="390" as="targetPoint" />
          </mxGeometry>
        </mxCell>
        <mxCell id="WwdtE9RKTWUhPfPTeJh7-18" value="&lt;p style=&quot;margin:0px;margin-top:4px;text-align:center;&quot;&gt;&lt;span style=&quot;font-size: 18px;&quot;&gt;&lt;b&gt;Actividad Turistica&lt;/b&gt;&lt;/span&gt;&lt;/p&gt;&lt;hr size=&quot;1&quot;&gt;&lt;p style=&quot;margin: 0px 0px 0px 4px; font-size: 15px;&quot;&gt;&lt;font style=&quot;font-size: 15px;&quot;&gt;nom : String&lt;/font&gt;&lt;/p&gt;&lt;p style=&quot;margin: 0px 0px 0px 4px; font-size: 15px;&quot;&gt;&lt;font style=&quot;font-size: 15px;&quot;&gt;desc : String&lt;/font&gt;&lt;/p&gt;&lt;p style=&quot;margin: 0px 0px 0px 4px; font-size: 15px;&quot;&gt;&lt;font style=&quot;font-size: 15px;&quot;&gt;duraci : Int&lt;/font&gt;&lt;/p&gt;&lt;p style=&quot;margin: 0px 0px 0px 4px; font-size: 15px;&quot;&gt;&lt;font style=&quot;font-size: 15px;&quot;&gt;costo : Float&lt;/font&gt;&lt;/p&gt;&lt;p style=&quot;margin: 0px 0px 0px 4px; font-size: 15px;&quot;&gt;&lt;font style=&quot;font-size: 15px;&quot;&gt;ciudad : String&lt;/font&gt;&lt;/p&gt;&lt;p style=&quot;margin: 0px 0px 0px 4px; font-size: 15px;&quot;&gt;&lt;font style=&quot;font-size: 15px;&quot;&gt;fecha : LocalDate&lt;/font&gt;&lt;/p&gt;&lt;hr style=&quot;font-size: 15px;&quot; size=&quot;1&quot;&gt;&lt;font style=&quot;font-size: 15px;&quot;&gt;&amp;nbsp;crearSalida(DTSalidaTuristica): &lt;font style=&quot;font-size: 15px;&quot;&gt;DTSalidaTuristica&lt;/font&gt;&lt;/font&gt;&lt;div style=&quot;font-size: 15px;&quot;&gt;&lt;font style=&quot;font-size: 15px;&quot;&gt;&amp;nbsp;verSalidasVigentes(): Set &amp;lt;String&amp;gt;&lt;br&gt;&lt;/font&gt;&lt;/div&gt;&lt;div style=&quot;font-size: 15px;&quot;&gt;&lt;font style=&quot;font-size: 15px;&quot;&gt;&amp;nbsp;buscarSalida(String): SalidaTuristica&lt;/font&gt;&lt;/div&gt;&lt;div style=&quot;font-size: 15px;&quot;&gt;&lt;font style=&quot;font-size: 15px;&quot;&gt;&amp;nbsp;&lt;font style=&quot;font-size: 15px;&quot;&gt;enlazadoConPaquete(String) : bool&lt;/font&gt;&lt;/font&gt;&lt;/div&gt;&lt;div style=&quot;font-size: 15px;&quot;&gt;&lt;font style=&quot;font-size: 15px;&quot;&gt;&amp;nbsp;getDataActTur(): DtActTur&lt;br&gt;&lt;/font&gt;&lt;/div&gt;&lt;div style=&quot;font-size: 15px;&quot;&gt;&lt;font style=&quot;font-size: 15px;&quot;&gt;&amp;nbsp;listarSalidas(): Set &amp;lt;String&amp;gt;&lt;/font&gt;&lt;/div&gt;&lt;div style=&quot;font-size: 15px;&quot;&gt;&lt;font style=&quot;font-size: 15px;&quot;&gt;&amp;nbsp;agregarPaquete(Paquete)&lt;br&gt;&lt;/font&gt;&lt;/div&gt;&lt;div style=&quot;font-size: 15px;&quot;&gt;&lt;font style=&quot;font-size: 15px;&quot;&gt;&amp;nbsp;datosSalTur(String): DtSalidaTuristica&lt;/font&gt;&lt;/div&gt;&lt;div style=&quot;font-size: 15px;&quot;&gt;&lt;font style=&quot;font-size: 15px;&quot;&gt;&amp;nbsp;listarPaquetes&lt;font style=&quot;font-size: 15px;&quot;&gt;&lt;br&gt;&lt;/font&gt;&lt;/font&gt;&lt;/div&gt;" style="verticalAlign=top;align=left;overflow=fill;fontSize=12;fontFamily=Helvetica;html=1;whiteSpace=wrap;" vertex="1" parent="1">
          <mxGeometry x="-1320" y="380" width="360" height="395" as="geometry" />
        </mxCell>
        <mxCell id="KXZ4tvlXdRsElCx-VWko-7" value="" style="endArrow=classic;html=1;rounded=0;fontSize=12;startSize=8;endSize=8;curved=1;exitX=0;exitY=0.5;exitDx=0;exitDy=0;entryX=1.004;entryY=0.3;entryDx=0;entryDy=0;entryPerimeter=0;" edge="1" parent="1" source="WwdtE9RKTWUhPfPTeJh7-6" target="WwdtE9RKTWUhPfPTeJh7-18">
          <mxGeometry width="50" height="50" relative="1" as="geometry">
            <mxPoint x="-920" y="630" as="sourcePoint" />
            <mxPoint x="-980" y="498" as="targetPoint" />
          </mxGeometry>
        </mxCell>
        <mxCell id="xH-knIzr2RIohKAUTIsA-4" value="*" style="edgeLabel;html=1;align=center;verticalAlign=middle;resizable=0;points=[];" connectable="0" vertex="1" parent="KXZ4tvlXdRsElCx-VWko-7">
          <mxGeometry x="0.84" y="1" relative="1" as="geometry">
            <mxPoint x="3" y="-14" as="offset" />
          </mxGeometry>
        </mxCell>
        <mxCell id="KXZ4tvlXdRsElCx-VWko-9" value="1" style="text;html=1;align=center;verticalAlign=middle;resizable=0;points=[];autosize=1;strokeColor=none;fillColor=none;fontSize=16;" vertex="1" parent="1">
          <mxGeometry x="-744" y="474" width="30" height="30" as="geometry" />
        </mxCell>
        <mxCell id="KXZ4tvlXdRsElCx-VWko-10" value="&lt;span style=&quot;font-size: 18px;&quot;&gt;&lt;b&gt;&lt;span style=&quot;&quot;&gt;&lt;span style=&quot;&quot;&gt;&amp;nbsp;&amp;nbsp;&amp;nbsp;&amp;nbsp;&lt;/span&gt;&lt;/span&gt;&lt;span style=&quot;&quot;&gt;&lt;span style=&quot;&quot;&gt;&amp;nbsp;&amp;nbsp;&amp;nbsp;&amp;nbsp;&lt;/span&gt;&lt;/span&gt;SalidaTuristica&lt;/b&gt;&lt;/span&gt;&lt;hr size=&quot;1&quot;&gt;&lt;p style=&quot;margin: 0px 0px 0px 4px; font-size: 15px;&quot;&gt;&lt;font style=&quot;font-size: 15px;&quot;&gt;nombre: String&lt;br&gt;&lt;/font&gt;&lt;/p&gt;&lt;p style=&quot;margin: 0px 0px 0px 4px; font-size: 15px;&quot;&gt;&lt;font style=&quot;font-size: 15px;&quot;&gt;fechaSalida: LocalDate&lt;br&gt;&lt;/font&gt;&lt;/p&gt;&lt;p style=&quot;margin: 0px 0px 0px 4px; font-size: 15px;&quot;&gt;&lt;font style=&quot;font-size: 15px;&quot;&gt;horaSalida: LocalTime&lt;br&gt;&lt;/font&gt;&lt;/p&gt;&lt;p style=&quot;margin: 0px 0px 0px 4px; font-size: 15px;&quot;&gt;&lt;font style=&quot;font-size: 15px;&quot;&gt;lugarSalida: String&lt;br&gt;&lt;/font&gt;&lt;/p&gt;&lt;p style=&quot;margin: 0px 0px 0px 4px; font-size: 15px;&quot;&gt;&lt;font style=&quot;font-size: 15px;&quot;&gt;cantMaxTuristas: Integer&lt;/font&gt;&lt;/p&gt;&lt;p style=&quot;margin: 0px 0px 0px 4px; font-size: 15px;&quot;&gt;&lt;font style=&quot;font-size: 15px;&quot;&gt;fechaAlta: LocalDate&lt;/font&gt;&lt;br&gt;&lt;/p&gt;&lt;hr style=&quot;font-size: 16px;&quot; size=&quot;1&quot;&gt;&lt;font style=&quot;font-size: 15px;&quot;&gt;&amp;nbsp;&lt;/font&gt;&lt;font style=&quot;font-size: 15px;&quot;&gt;estaVigente(): Boolean&lt;/font&gt;&lt;p style=&quot;border-color: var(--border-color); margin: 0px 0px 0px 4px; font-size: 15px;&quot;&gt;dtSalTur(): DtSalidaTuristica&lt;br&gt;&lt;/p&gt;&lt;div style=&quot;font-size: 16px;&quot;&gt;&lt;br&gt;&lt;/div&gt;&lt;div style=&quot;font-size: 16px;&quot;&gt;&amp;nbsp;&lt;br&gt;&lt;/div&gt;" style="verticalAlign=top;align=left;overflow=fill;fontSize=12;fontFamily=Helvetica;html=1;whiteSpace=wrap;" vertex="1" parent="1">
          <mxGeometry x="-790" y="740" width="350" height="360" as="geometry" />
        </mxCell>
        <mxCell id="KXZ4tvlXdRsElCx-VWko-11" value="" style="endArrow=classic;html=1;rounded=0;fontSize=12;startSize=8;endSize=8;curved=1;entryX=-0.006;entryY=0.219;entryDx=0;entryDy=0;entryPerimeter=0;exitX=1.001;exitY=0.67;exitDx=0;exitDy=0;exitPerimeter=0;" edge="1" parent="1" source="WwdtE9RKTWUhPfPTeJh7-18" target="KXZ4tvlXdRsElCx-VWko-10">
          <mxGeometry width="50" height="50" relative="1" as="geometry">
            <mxPoint x="-1145" y="390" as="sourcePoint" />
            <mxPoint x="-820" y="370" as="targetPoint" />
          </mxGeometry>
        </mxCell>
        <mxCell id="WwdtE9RKTWUhPfPTeJh7-19" value="1" style="edgeLabel;html=1;align=center;verticalAlign=middle;resizable=0;points=[];" connectable="0" vertex="1" parent="KXZ4tvlXdRsElCx-VWko-11">
          <mxGeometry x="-0.8289" y="2" relative="1" as="geometry">
            <mxPoint x="-3" y="-16" as="offset" />
          </mxGeometry>
        </mxCell>
        <mxCell id="WwdtE9RKTWUhPfPTeJh7-21" value="*" style="edgeLabel;html=1;align=center;verticalAlign=middle;resizable=0;points=[];" connectable="0" vertex="1" parent="KXZ4tvlXdRsElCx-VWko-11">
          <mxGeometry x="0.7869" y="-2" relative="1" as="geometry">
            <mxPoint x="5" y="-18" as="offset" />
          </mxGeometry>
        </mxCell>
        <mxCell id="QyrpxtW9N295G_J4CGJI-1" value="" style="endArrow=classic;html=1;rounded=0;entryX=1.008;entryY=0.817;entryDx=0;entryDy=0;entryPerimeter=0;exitX=-0.009;exitY=0.171;exitDx=0;exitDy=0;exitPerimeter=0;" edge="1" parent="1" source="t0hAt-ErPhpD4sTweukp-1" target="WwdtE9RKTWUhPfPTeJh7-2">
          <mxGeometry width="50" height="50" relative="1" as="geometry">
            <mxPoint x="-20" y="162" as="sourcePoint" />
            <mxPoint x="-280" y="150" as="targetPoint" />
          </mxGeometry>
        </mxCell>
        <mxCell id="QyrpxtW9N295G_J4CGJI-2" value="1" style="text;html=1;strokeColor=none;fillColor=none;align=center;verticalAlign=middle;whiteSpace=wrap;rounded=0;" vertex="1" parent="1">
          <mxGeometry x="-280" y="140" width="60" height="30" as="geometry" />
        </mxCell>
        <mxCell id="QyrpxtW9N295G_J4CGJI-3" value="" style="endArrow=classic;html=1;rounded=0;exitX=0.659;exitY=0.001;exitDx=0;exitDy=0;entryX=0.528;entryY=-0.006;entryDx=0;entryDy=0;entryPerimeter=0;exitPerimeter=0;" edge="1" parent="1" source="t0hAt-ErPhpD4sTweukp-1" target="KXZ4tvlXdRsElCx-VWko-1">
          <mxGeometry width="50" height="50" relative="1" as="geometry">
            <mxPoint x="280" y="10" as="sourcePoint" />
            <mxPoint x="-1745" y="410" as="targetPoint" />
            <Array as="points">
              <mxPoint x="280" y="10" />
              <mxPoint x="-1763" y="10" />
            </Array>
          </mxGeometry>
        </mxCell>
        <mxCell id="QyrpxtW9N295G_J4CGJI-5" value="" style="endArrow=classic;html=1;rounded=0;exitX=0.75;exitY=0;exitDx=0;exitDy=0;" edge="1" parent="1" source="t0hAt-ErPhpD4sTweukp-1">
          <mxGeometry width="50" height="50" relative="1" as="geometry">
            <mxPoint x="210" y="40" as="sourcePoint" />
            <mxPoint x="-1809" y="420" as="targetPoint" />
            <Array as="points">
              <mxPoint x="320" y="-20" />
              <mxPoint x="-1810" y="-20" />
            </Array>
          </mxGeometry>
        </mxCell>
        <mxCell id="QyrpxtW9N295G_J4CGJI-6" value="&lt;span style=&quot;font-size: 18px;&quot;&gt;&lt;b&gt;&lt;span style=&quot;&quot;&gt;&lt;span style=&quot;&quot;&gt;&amp;nbsp;&amp;nbsp;&amp;nbsp;&amp;nbsp;&lt;/span&gt;&lt;/span&gt;&lt;span style=&quot;&quot;&gt;&lt;span style=&quot;&quot;&gt;&amp;nbsp;&amp;nbsp;&amp;nbsp;&amp;nbsp;&lt;/span&gt;&lt;/span&gt;&lt;span style=&quot;&quot;&gt;&lt;span style=&quot;&quot;&gt;&amp;nbsp;&amp;nbsp;&amp;nbsp;&amp;nbsp;&lt;/span&gt;&lt;/span&gt;Paquete&lt;/b&gt;&lt;/span&gt;&lt;hr size=&quot;1&quot;&gt;&lt;p style=&quot;margin: 0px 0px 0px 4px; font-size: 15px;&quot;&gt;&lt;font style=&quot;font-size: 15px;&quot;&gt;nombre : string&lt;/font&gt;&lt;/p&gt;&lt;p style=&quot;margin: 0px 0px 0px 4px; font-size: 15px;&quot;&gt;&lt;font style=&quot;font-size: 15px;&quot;&gt;desc : string&lt;/font&gt;&lt;/p&gt;&lt;p style=&quot;margin: 0px 0px 0px 4px; font-size: 15px;&quot;&gt;&lt;font style=&quot;font-size: 15px;&quot;&gt;periodoValidez : int&lt;/font&gt;&lt;/p&gt;&lt;p style=&quot;margin: 0px 0px 0px 4px; font-size: 15px;&quot;&gt;&lt;font style=&quot;font-size: 15px;&quot;&gt;descuento&amp;nbsp; : int/float&lt;/font&gt;&lt;/p&gt;&lt;p style=&quot;margin: 0px 0px 0px 4px; font-size: 15px;&quot;&gt;&lt;font style=&quot;font-size: 15px;&quot;&gt;fechaAlta : date&lt;/font&gt;&lt;/p&gt;&lt;hr style=&quot;font-size: 15px;&quot; size=&quot;1&quot;&gt;&lt;font style=&quot;font-size: 15px;&quot;&gt;&amp;nbsp;&lt;font style=&quot;font-size: 15px;&quot;&gt;agregarActividad(ActividadTuristica)&lt;/font&gt;&lt;/font&gt;&lt;p style=&quot;border-color: var(--border-color); margin: 0px 0px 0px 4px; font-size: 15px;&quot;&gt;&lt;font style=&quot;font-size: 15px;&quot;&gt;&lt;span style=&quot;background-color: initial;&quot;&gt;listarActividades(): Set &amp;lt;String&amp;gt;&lt;br&gt;&lt;/span&gt;&lt;/font&gt;&lt;/p&gt;&lt;p style=&quot;border-color: var(--border-color); margin: 0px 0px 0px 4px; font-size: 15px;&quot;&gt;&lt;font style=&quot;font-size: 15px;&quot;&gt;&lt;span style=&quot;background-color: initial;&quot;&gt;getData(): DtPaquete&lt;br&gt;&lt;/span&gt;&lt;/font&gt;&lt;/p&gt;&lt;p style=&quot;border-color: var(--border-color); margin: 0px 0px 0px 4px; font-size: 15px;&quot;&gt;&lt;font style=&quot;font-size: 15px;&quot;&gt;getDataTodo(): DtPaquete&lt;/font&gt;&lt;/p&gt;" style="verticalAlign=top;align=left;overflow=fill;fontSize=12;fontFamily=Helvetica;html=1;whiteSpace=wrap;" vertex="1" parent="1">
          <mxGeometry x="-800" y="1190" width="313" height="310" as="geometry" />
        </mxCell>
        <mxCell id="QyrpxtW9N295G_J4CGJI-7" value="" style="endArrow=classic;html=1;rounded=0;exitX=0.75;exitY=1;exitDx=0;exitDy=0;entryX=0;entryY=0.25;entryDx=0;entryDy=0;startArrow=classic;startFill=1;" edge="1" parent="1" source="WwdtE9RKTWUhPfPTeJh7-18" target="QyrpxtW9N295G_J4CGJI-6">
          <mxGeometry width="50" height="50" relative="1" as="geometry">
            <mxPoint x="-910" y="1110" as="sourcePoint" />
            <mxPoint x="-860" y="1060" as="targetPoint" />
          </mxGeometry>
        </mxCell>
        <mxCell id="xH-knIzr2RIohKAUTIsA-2" value="*" style="edgeLabel;html=1;align=center;verticalAlign=middle;resizable=0;points=[];" connectable="0" vertex="1" parent="QyrpxtW9N295G_J4CGJI-7">
          <mxGeometry x="-0.9077" y="2" relative="1" as="geometry">
            <mxPoint x="10" y="-7" as="offset" />
          </mxGeometry>
        </mxCell>
        <mxCell id="xH-knIzr2RIohKAUTIsA-3" value="*" style="edgeLabel;html=1;align=center;verticalAlign=middle;resizable=0;points=[];" connectable="0" vertex="1" parent="QyrpxtW9N295G_J4CGJI-7">
          <mxGeometry x="0.7976" y="-2" relative="1" as="geometry">
            <mxPoint x="4" y="-10" as="offset" />
          </mxGeometry>
        </mxCell>
        <mxCell id="QyrpxtW9N295G_J4CGJI-11" value="&lt;div&gt;&lt;font style=&quot;font-size: 24px;&quot;&gt;&amp;lt;&amp;lt;DtUsuario&amp;gt;&amp;gt;&lt;/font&gt;&lt;/div&gt;&lt;div&gt;&lt;font size=&quot;3&quot;&gt;nick : String&lt;/font&gt;&lt;/div&gt;&lt;div&gt;&lt;font size=&quot;3&quot;&gt;nom : String&lt;/font&gt;&lt;/div&gt;&lt;div&gt;&lt;font size=&quot;3&quot;&gt;ape : String&lt;/font&gt;&lt;/div&gt;&lt;div&gt;&lt;font size=&quot;3&quot;&gt;email : String&lt;/font&gt;&lt;/div&gt;&lt;div&gt;&lt;font size=&quot;3&quot;&gt;fechaNac : Date&lt;/font&gt;&lt;/div&gt;&lt;div&gt;&lt;font size=&quot;3&quot;&gt;desc : String&lt;/font&gt;&lt;/div&gt;&lt;div&gt;&lt;font size=&quot;3&quot;&gt;link : String&lt;/font&gt;&lt;/div&gt;&lt;div&gt;&lt;font size=&quot;3&quot;&gt;nacion : String&lt;/font&gt;&lt;/div&gt;" style="shape=note;whiteSpace=wrap;html=1;backgroundOutline=1;darkOpacity=0.05;fillColor=#fff2cc;strokeColor=#d6b656;" vertex="1" parent="1">
          <mxGeometry x="-1910" y="840" width="190" height="240" as="geometry" />
        </mxCell>
        <mxCell id="WwdtE9RKTWUhPfPTeJh7-31" value="&amp;lt;&amp;lt;datatype&amp;gt;&amp;gt;&lt;br&gt;dtPaquete" style="swimlane;fontStyle=1;align=center;verticalAlign=top;childLayout=stackLayout;horizontal=1;startSize=50;horizontalStack=0;resizeParent=1;resizeParentMax=0;resizeLast=0;collapsible=1;marginBottom=0;whiteSpace=wrap;html=1;fontSize=16;rounded=1;" vertex="1" parent="1">
          <mxGeometry x="-1409" y="920" width="169" height="160" as="geometry" />
        </mxCell>
        <mxCell id="WwdtE9RKTWUhPfPTeJh7-32" value="nombre: string&lt;br&gt;desc : string&lt;br&gt;periodoValidez : int&lt;br&gt;descuento : int/float&lt;br&gt;fechaAlta : date" style="text;strokeColor=none;fillColor=none;align=left;verticalAlign=top;spacingLeft=4;spacingRight=4;overflow=hidden;rotatable=0;points=[[0,0.5],[1,0.5]];portConstraint=eastwest;whiteSpace=wrap;html=1;fontSize=16;" vertex="1" parent="WwdtE9RKTWUhPfPTeJh7-31">
          <mxGeometry y="50" width="169" height="110" as="geometry" />
        </mxCell>
        <mxCell id="QyrpxtW9N295G_J4CGJI-12" value="&lt;div&gt;&lt;font style=&quot;font-size: 24px;&quot;&gt;&amp;lt;&amp;lt;DtModUser&amp;gt;&amp;gt;&lt;/font&gt;&lt;/div&gt;&lt;div&gt;&lt;font style=&quot;font-size: 18px;&quot;&gt;nom : String&lt;/font&gt;&lt;/div&gt;&lt;div&gt;&lt;font size=&quot;3&quot;&gt;ape : String&lt;/font&gt;&lt;/div&gt;&lt;div&gt;&lt;font size=&quot;3&quot;&gt;fechaNac : Date&lt;/font&gt;&lt;/div&gt;&lt;div&gt;&lt;font size=&quot;3&quot;&gt;nacion : String&lt;/font&gt;&lt;/div&gt;&lt;div&gt;&lt;font size=&quot;3&quot;&gt;desc : String&lt;/font&gt;&lt;/div&gt;&lt;div&gt;&lt;font size=&quot;3&quot;&gt;link : String&lt;/font&gt;&lt;/div&gt;" style="shape=note;whiteSpace=wrap;html=1;backgroundOutline=1;darkOpacity=0.05;fillColor=#fff2cc;strokeColor=#d6b656;" vertex="1" parent="1">
          <mxGeometry x="-1654" y="840" width="190" height="240" as="geometry" />
        </mxCell>
        <mxCell id="WwdtE9RKTWUhPfPTeJh7-49" value="&amp;lt;&amp;lt;datatype&amp;gt;&amp;gt;&lt;br&gt;dtDepartamento" style="swimlane;fontStyle=1;align=center;verticalAlign=top;childLayout=stackLayout;horizontal=1;startSize=50;horizontalStack=0;resizeParent=1;resizeParentMax=0;resizeLast=0;collapsible=1;marginBottom=0;whiteSpace=wrap;html=1;fontSize=16;rounded=1;" vertex="1" parent="1">
          <mxGeometry x="-1210" y="960" width="169" height="80" as="geometry" />
        </mxCell>
        <mxCell id="WwdtE9RKTWUhPfPTeJh7-50" value="nombre: string&lt;br&gt;" style="text;strokeColor=none;fillColor=none;align=left;verticalAlign=top;spacingLeft=4;spacingRight=4;overflow=hidden;rotatable=0;points=[[0,0.5],[1,0.5]];portConstraint=eastwest;whiteSpace=wrap;html=1;fontSize=16;" vertex="1" parent="WwdtE9RKTWUhPfPTeJh7-49">
          <mxGeometry y="50" width="169" height="30" as="geometry" />
        </mxCell>
        <mxCell id="KXZ4tvlXdRsElCx-VWko-14" value="&lt;div align=&quot;center&quot;&gt;&lt;span style=&quot;font-size: 18px;&quot;&gt;&lt;b&gt;&lt;span style=&quot;&quot;&gt;&lt;span style=&quot;&quot;&gt;&amp;nbsp;&amp;nbsp;&amp;nbsp;&amp;nbsp;&lt;/span&gt;&lt;/span&gt;&lt;span style=&quot;&quot;&gt;&lt;span style=&quot;&quot;&gt;&amp;nbsp;&amp;nbsp;&amp;nbsp; &lt;/span&gt;&lt;/span&gt;Turista-Salida&lt;/b&gt;&lt;/span&gt;&lt;/div&gt;&lt;hr size=&quot;1&quot;&gt;&lt;p style=&quot;margin: 0px 0px 0px 4px; font-size: 15px;&quot;&gt;&lt;font style=&quot;font-size: 15px;&quot;&gt;fecha: LocalDate&lt;br&gt;&lt;/font&gt;&lt;/p&gt;&lt;p style=&quot;margin: 0px 0px 0px 4px; font-size: 15px;&quot;&gt;&lt;font style=&quot;font-size: 15px;&quot;&gt;cant: Integer&lt;font style=&quot;font-size: 15px;&quot;&gt;&lt;br&gt;&lt;/font&gt;&lt;/font&gt;&lt;/p&gt;&lt;hr style=&quot;font-size: 16px;&quot; size=&quot;1&quot;&gt;&lt;font style=&quot;font-size: 16px;&quot;&gt;&amp;nbsp;&lt;/font&gt; &lt;br&gt;&lt;div style=&quot;font-size: 16px;&quot;&gt;&amp;nbsp;&lt;/div&gt;&lt;div style=&quot;font-size: 16px;&quot;&gt;&lt;br&gt;&lt;/div&gt;" style="verticalAlign=top;align=left;overflow=fill;fontSize=12;fontFamily=Helvetica;html=1;whiteSpace=wrap;" vertex="1" parent="1">
          <mxGeometry x="-290" y="760" width="350" height="260" as="geometry" />
        </mxCell>
        <mxCell id="KXZ4tvlXdRsElCx-VWko-17" value="&amp;lt;&amp;lt;datatype&amp;gt;&amp;gt;&lt;br&gt;DTInscSalTur" style="swimlane;fontStyle=1;align=center;verticalAlign=top;childLayout=stackLayout;horizontal=1;startSize=50;horizontalStack=0;resizeParent=1;resizeParentMax=0;resizeLast=0;collapsible=1;marginBottom=0;whiteSpace=wrap;html=1;fontSize=16;rounded=1;fillColor=none;" vertex="1" parent="1">
          <mxGeometry x="-1880" y="1140" width="169" height="160" as="geometry" />
        </mxCell>
        <mxCell id="KXZ4tvlXdRsElCx-VWko-18" value="nickname: String&lt;br&gt;nombreSalida: String&lt;br&gt;cantTuristas: Integer&lt;br&gt;fechaInsc: Date" style="text;strokeColor=none;fillColor=none;align=left;verticalAlign=top;spacingLeft=4;spacingRight=4;overflow=hidden;rotatable=0;points=[[0,0.5],[1,0.5]];portConstraint=eastwest;whiteSpace=wrap;html=1;fontSize=16;" vertex="1" parent="KXZ4tvlXdRsElCx-VWko-17">
          <mxGeometry y="50" width="169" height="110" as="geometry" />
        </mxCell>
        <mxCell id="KXZ4tvlXdRsElCx-VWko-19" value="&amp;lt;&amp;lt;datatype&amp;gt;&amp;gt;&lt;br&gt;DTSalidaTuristica" style="swimlane;fontStyle=1;align=center;verticalAlign=top;childLayout=stackLayout;horizontal=1;startSize=50;horizontalStack=0;resizeParent=1;resizeParentMax=0;resizeLast=0;collapsible=1;marginBottom=0;whiteSpace=wrap;html=1;fontSize=16;rounded=1;fillColor=none;" vertex="1" parent="1">
          <mxGeometry x="-1654" y="1140" width="284" height="180" as="geometry" />
        </mxCell>
        <mxCell id="KXZ4tvlXdRsElCx-VWko-20" value="nombreSalida: String&lt;br&gt;&lt;div&gt;fechaSalida: Date&lt;/div&gt;&lt;div&gt;hora: DTHora&lt;br&gt;&lt;/div&gt;&lt;div&gt;lugarSalida: String&lt;/div&gt;&lt;div&gt;cantMaxTur: Integer&lt;/div&gt;&lt;div&gt;fechaAlta: Date&lt;br&gt;&lt;/div&gt;" style="text;strokeColor=none;fillColor=none;align=left;verticalAlign=top;spacingLeft=4;spacingRight=4;overflow=hidden;rotatable=0;points=[[0,0.5],[1,0.5]];portConstraint=eastwest;whiteSpace=wrap;html=1;fontSize=16;" vertex="1" parent="KXZ4tvlXdRsElCx-VWko-19">
          <mxGeometry y="50" width="284" height="130" as="geometry" />
        </mxCell>
        <mxCell id="TDn5_HxHDoguFr-mPoKO-1" value="&lt;div&gt;&lt;font style=&quot;font-size: 24px;&quot;&gt;&amp;lt;&amp;lt;DtActTur&amp;gt;&amp;gt;&lt;/font&gt;&lt;/div&gt;&lt;div&gt;&lt;font size=&quot;3&quot;&gt;nom : String&lt;/font&gt;&lt;/div&gt;&lt;div&gt;&lt;font size=&quot;3&quot;&gt;desc : String&lt;/font&gt;&lt;/div&gt;&lt;div&gt;&lt;font size=&quot;3&quot;&gt;duraci : Int&lt;/font&gt;&lt;/div&gt;&lt;div&gt;&lt;font size=&quot;3&quot;&gt;costo : Float&lt;/font&gt;&lt;/div&gt;&lt;div&gt;&lt;font size=&quot;3&quot;&gt;ciudad : String&lt;/font&gt;&lt;/div&gt;&lt;div&gt;&lt;font size=&quot;3&quot;&gt;fecha : Date&lt;/font&gt;&lt;/div&gt;" style="shape=note;whiteSpace=wrap;html=1;backgroundOutline=1;darkOpacity=0.05;fillColor=#fff2cc;strokeColor=#d6b656;" vertex="1" parent="1">
          <mxGeometry x="-2162.5" y="840" width="190" height="240" as="geometry" />
        </mxCell>
        <mxCell id="TDn5_HxHDoguFr-mPoKO-2" value="" style="endArrow=classic;html=1;rounded=0;entryX=0.653;entryY=0.005;entryDx=0;entryDy=0;exitX=0.25;exitY=0;exitDx=0;exitDy=0;entryPerimeter=0;" edge="1" parent="1" source="t0hAt-ErPhpD4sTweukp-1" target="WwdtE9RKTWUhPfPTeJh7-18">
          <mxGeometry width="50" height="50" relative="1" as="geometry">
            <mxPoint x="29.333333333333336" y="60" as="sourcePoint" />
            <mxPoint x="-1010" y="170" as="targetPoint" />
            <Array as="points">
              <mxPoint x="100" y="50" />
              <mxPoint x="-1085" y="50" />
            </Array>
          </mxGeometry>
        </mxCell>
        <mxCell id="TDn5_HxHDoguFr-mPoKO-3" value="1" style="text;html=1;strokeColor=none;fillColor=none;align=center;verticalAlign=middle;whiteSpace=wrap;rounded=0;" vertex="1" parent="1">
          <mxGeometry x="-1078" y="380" width="60" height="30" as="geometry" />
        </mxCell>
        <mxCell id="6jOxTkrR4VFWpNlPsCGR-5" value="" style="endArrow=classic;html=1;rounded=0;fontSize=12;startSize=8;endSize=8;curved=1;entryX=0.43;entryY=-0.006;entryDx=0;entryDy=0;entryPerimeter=0;exitX=0.618;exitY=1.05;exitDx=0;exitDy=0;exitPerimeter=0;" edge="1" parent="1" source="WwdtE9RKTWUhPfPTeJh7-12" target="KXZ4tvlXdRsElCx-VWko-14">
          <mxGeometry width="50" height="50" relative="1" as="geometry">
            <mxPoint x="-139" y="620" as="sourcePoint" />
            <mxPoint x="-115" y="650" as="targetPoint" />
          </mxGeometry>
        </mxCell>
        <mxCell id="6jOxTkrR4VFWpNlPsCGR-6" value="1" style="text;html=1;align=center;verticalAlign=middle;resizable=0;points=[];autosize=1;strokeColor=none;fillColor=none;fontSize=16;" vertex="1" parent="1">
          <mxGeometry x="-145" y="640" width="30" height="30" as="geometry" />
        </mxCell>
        <mxCell id="6jOxTkrR4VFWpNlPsCGR-7" value="*" style="text;html=1;align=center;verticalAlign=middle;resizable=0;points=[];autosize=1;strokeColor=none;fillColor=none;fontSize=16;" vertex="1" parent="1">
          <mxGeometry x="-140" y="731" width="30" height="30" as="geometry" />
        </mxCell>
        <mxCell id="6jOxTkrR4VFWpNlPsCGR-8" value="" style="endArrow=classic;html=1;rounded=0;fontSize=12;startSize=8;endSize=8;curved=1;exitX=-0.003;exitY=0.539;exitDx=0;exitDy=0;exitPerimeter=0;entryX=1;entryY=0.442;entryDx=0;entryDy=0;entryPerimeter=0;" edge="1" parent="1" source="KXZ4tvlXdRsElCx-VWko-14" target="KXZ4tvlXdRsElCx-VWko-10">
          <mxGeometry width="50" height="50" relative="1" as="geometry">
            <mxPoint x="-390" y="945" as="sourcePoint" />
            <mxPoint x="-450" y="899" as="targetPoint" />
          </mxGeometry>
        </mxCell>
        <mxCell id="6jOxTkrR4VFWpNlPsCGR-9" value="1" style="text;html=1;align=center;verticalAlign=middle;resizable=0;points=[];autosize=1;strokeColor=none;fillColor=none;fontSize=16;" vertex="1" parent="1">
          <mxGeometry x="-443" y="870" width="30" height="30" as="geometry" />
        </mxCell>
        <mxCell id="VhuOY0u_vWuCbBMxZuge-1" value="*" style="text;html=1;strokeColor=none;fillColor=none;align=center;verticalAlign=middle;whiteSpace=wrap;rounded=0;" vertex="1" parent="1">
          <mxGeometry x="-1760" y="390" width="60" height="30" as="geometry" />
        </mxCell>
        <mxCell id="VhuOY0u_vWuCbBMxZuge-3" value="1" style="text;html=1;strokeColor=none;fillColor=none;align=center;verticalAlign=middle;whiteSpace=wrap;rounded=0;" vertex="1" parent="1">
          <mxGeometry x="-1825.5" y="380" width="60" height="30" as="geometry" />
        </mxCell>
        <mxCell id="41W_kyDMqVQ3KHqFS_Wa-1" value="" style="endArrow=none;dashed=1;html=1;dashPattern=1 3;strokeWidth=2;rounded=0;entryX=0.048;entryY=1.001;entryDx=0;entryDy=0;entryPerimeter=0;exitX=1;exitY=0;exitDx=0;exitDy=0;" edge="1" parent="1" source="KXZ4tvlXdRsElCx-VWko-10" target="t0hAt-ErPhpD4sTweukp-1">
          <mxGeometry width="50" height="50" relative="1" as="geometry">
            <mxPoint x="-180" y="820" as="sourcePoint" />
            <mxPoint x="-130" y="770" as="targetPoint" />
          </mxGeometry>
        </mxCell>
        <mxCell id="41W_kyDMqVQ3KHqFS_Wa-2" value="" style="endArrow=none;dashed=1;html=1;dashPattern=1 3;strokeWidth=2;rounded=0;entryX=-0.009;entryY=0.732;entryDx=0;entryDy=0;entryPerimeter=0;exitX=0.936;exitY=-0.006;exitDx=0;exitDy=0;exitPerimeter=0;" edge="1" parent="1" source="KXZ4tvlXdRsElCx-VWko-10" target="WwdtE9RKTWUhPfPTeJh7-12">
          <mxGeometry width="50" height="50" relative="1" as="geometry">
            <mxPoint x="-180" y="820" as="sourcePoint" />
            <mxPoint x="-130" y="770" as="targetPoint" />
          </mxGeometry>
        </mxCell>
        <mxCell id="41W_kyDMqVQ3KHqFS_Wa-4" value="1" style="text;html=1;align=center;verticalAlign=middle;resizable=0;points=[];autosize=1;strokeColor=none;fillColor=none;fontSize=16;" vertex="1" parent="1">
          <mxGeometry x="-320" y="870" width="30" height="30" as="geometry" />
        </mxCell>
        <mxCell id="dAUSrfWz9pkDYstYwC68-1" value="&lt;p style=&quot;margin:0px;margin-top:4px;text-align:center;&quot;&gt;&lt;b&gt;&lt;font style=&quot;font-size: 18px;&quot;&gt;Fabrica&lt;/font&gt;&lt;/b&gt;&lt;/p&gt;&lt;hr size=&quot;1&quot;&gt;&lt;div style=&quot;height:2px;&quot;&gt;&lt;/div&gt;&lt;hr size=&quot;1&quot;&gt;&lt;div style=&quot;height:2px;&quot;&gt;&amp;nbsp; &amp;nbsp; getSistema():I-Sistema&lt;/div&gt;" style="verticalAlign=top;align=left;overflow=fill;fontSize=12;fontFamily=Helvetica;html=1;whiteSpace=wrap;" vertex="1" parent="1">
          <mxGeometry x="400" y="-120" width="150" height="80" as="geometry" />
        </mxCell>
        <mxCell id="dAUSrfWz9pkDYstYwC68-2" value="&lt;p style=&quot;margin: 4px 0px 0px; text-align: center; font-size: 18px;&quot;&gt;&lt;i style=&quot;border-color: var(--border-color);&quot;&gt;&amp;lt;&amp;lt;Interface&amp;gt;&amp;gt;&lt;/i&gt;&lt;br style=&quot;border-color: var(--border-color);&quot;&gt;&lt;/p&gt;&lt;p style=&quot;margin: 4px 0px 0px; text-align: center; font-size: 18px;&quot;&gt;&lt;b&gt;I-Sistema&lt;/b&gt;&lt;/p&gt;&lt;hr size=&quot;1&quot;&gt;&lt;p style=&quot;margin:0px;margin-left:4px;&quot;&gt;&lt;br&gt;&lt;/p&gt;&lt;hr size=&quot;1&quot;&gt;&amp;nbsp;cargarDepartamentos(): Set &amp;lt;Departamento&amp;gt;&lt;br&gt;&lt;div&gt;&amp;nbsp;cargarUsuarios(): Set &amp;lt;Usuario&amp;gt;&lt;/div&gt;&lt;div&gt;&amp;nbsp;cargarPaquetes(): Ste &amp;lt;Paquete&amp;gt;&lt;br&gt;&lt;/div&gt;&lt;p style=&quot;border-color: var(--border-color); margin: 0px 0px 0px 4px;&quot;&gt;&lt;font style=&quot;font-size: 12px;&quot;&gt;&lt;font style=&quot;font-size: 12px;&quot;&gt;altaUsuario(provotur : Bool, data : DtUsuario)&lt;/font&gt;&lt;br&gt;&lt;/font&gt;&lt;/p&gt;&lt;p style=&quot;border-color: var(--border-color); margin: 0px 0px 0px 4px;&quot;&gt;&lt;font style=&quot;font-size: 12px;&quot;&gt;obtenerDatosDepartamento(nombre: String)&lt;/font&gt;&lt;/p&gt;&lt;p style=&quot;border-color: var(--border-color); margin: 0px 0px 0px 4px;&quot;&gt;&lt;font style=&quot;font-size: 12px;&quot;&gt;obtenerDatosDepartamento(d: Departamento)&lt;/font&gt;&lt;/p&gt;&lt;p style=&quot;border-color: var(--border-color); margin: 0px 0px 0px 4px;&quot;&gt;&lt;font style=&quot;font-size: 12px;&quot;&gt;listarProv(): Set &amp;lt;String&amp;gt;&lt;/font&gt;&lt;/p&gt;&lt;p style=&quot;border-color: var(--border-color); margin: 0px 0px 0px 4px;&quot;&gt;&lt;font style=&quot;font-size: 12px;&quot;&gt;listarTuris(): Set &amp;lt;String&amp;gt;&lt;/font&gt;&lt;/p&gt;&lt;p style=&quot;border-color: var(--border-color); margin: 0px 0px 0px 4px;&quot;&gt;&lt;font style=&quot;font-size: 12px;&quot;&gt;salidasVigentes(nombreAct: String): &lt;/font&gt;&lt;font style=&quot;font-size: 12px;&quot;&gt;Set &amp;lt;String&amp;gt;&lt;/font&gt;&lt;/p&gt;&lt;p style=&quot;border-color: var(--border-color); margin: 0px 0px 0px 4px;&quot;&gt;&lt;font style=&quot;font-size: 12px;&quot;&gt;buscarSalida(nombreSal: String): SalidaTuristica&lt;/font&gt;&lt;/p&gt;&lt;p style=&quot;border-color: var(--border-color); margin: 0px 0px 0px 4px;&quot;&gt;&lt;font style=&quot;font-size: 12px;&quot;&gt;altaInscripcion(nickTuris: String, nombreSal: String, cant: Int)&lt;/font&gt;&lt;/p&gt;&lt;p style=&quot;border-color: var(--border-color); margin: 0px 0px 0px 4px;&quot;&gt;&lt;font style=&quot;font-size: 12px;&quot;&gt;altaActividad(prov : String, dep : String, data : DtActTur)&lt;/font&gt;&lt;/p&gt;&lt;p style=&quot;border-color: var(--border-color); margin: 0px 0px 0px 4px;&quot;&gt;&lt;font style=&quot;font-size: 12px;&quot;&gt;modificarDatos(datosNuevos: DtModUser)&lt;/font&gt;&lt;/p&gt;&lt;p style=&quot;border-color: var(--border-color); margin: 0px 0px 0px 4px;&quot;&gt;&lt;font style=&quot;font-size: 12px;&quot;&gt;listarUsuarios(): Set &amp;lt;String&amp;gt;&lt;/font&gt;&lt;/p&gt;&lt;p style=&quot;border-color: var(--border-color); margin: 0px 0px 0px 4px;&quot;&gt;&lt;font style=&quot;font-size: 12px;&quot;&gt;listarDepartamentos(): Set &amp;lt;String&amp;gt;&lt;/font&gt;&lt;/p&gt;&lt;p style=&quot;border-color: var(--border-color); margin: 0px 0px 0px 4px;&quot;&gt;&lt;font style=&quot;font-size: 12px;&quot;&gt;obtenerDataUsuario(nick: String): DtUsuario&lt;/font&gt;&lt;/p&gt;&lt;p style=&quot;border-color: var(--border-color); margin: 0px 0px 0px 4px;&quot;&gt;&lt;font style=&quot;font-size: 12px;&quot;&gt;obtenerDataUsuarioPlus(nick: String): DtUsuario&lt;br&gt;&lt;/font&gt;&lt;/p&gt;&lt;p style=&quot;border-color: var(--border-color); margin: 0px 0px 0px 4px;&quot;&gt;&lt;font style=&quot;font-size: 12px;&quot;&gt;selecUsuario(nick: String)&lt;br&gt;&lt;/font&gt;&lt;/p&gt;&lt;p style=&quot;border-color: var(--border-color); margin: 0px 0px 0px 4px;&quot;&gt;&lt;font style=&quot;font-size: 12px;&quot;&gt;altaPaquete(dataPaquete: DtPaquete)&lt;br&gt;&lt;/font&gt;&lt;/p&gt;&lt;p style=&quot;border-color: var(--border-color); margin: 0px 0px 0px 4px;&quot;&gt;&lt;font style=&quot;font-size: 12px;&quot;&gt;listarPaquetesExistentes(): Set &amp;lt;String&amp;gt;&lt;br&gt;&lt;/font&gt;&lt;/p&gt;&lt;p style=&quot;border-color: var(--border-color); margin: 0px 0px 0px 4px;&quot;&gt;&lt;font style=&quot;font-size: 12px;&quot;&gt;seleccionarPaquete(nombre: String)&lt;/font&gt;&lt;/p&gt;&lt;p style=&quot;border-color: var(--border-color); margin: 0px 0px 0px 4px;&quot;&gt;&lt;font style=&quot;font-size: 12px;&quot;&gt;listarActividadesDepartamento(): &lt;/font&gt;&lt;font style=&quot;font-size: 12px;&quot;&gt;Set &amp;lt;String&amp;gt;&lt;br&gt;&lt;/font&gt;&lt;/p&gt;&lt;p style=&quot;border-color: var(--border-color); margin: 0px 0px 0px 4px;&quot;&gt;seleccionarActividadParaPaquete(nombreAct: String)&lt;/p&gt;&lt;p style=&quot;border-color: var(--border-color); margin: 0px 0px 0px 4px;&quot;&gt;imprimirInfoPaquete(nombre : String) : DtPaquete&lt;/p&gt;&lt;p style=&quot;border-color: var(--border-color); margin: 0px 0px 0px 4px;&quot;&gt;seleccionarDepartamento(nombreDep: String): &lt;font style=&quot;font-size: 12px;&quot;&gt;&lt;/font&gt;&lt;font style=&quot;font-size: 12px;&quot;&gt;Set &amp;lt;String&amp;gt;&lt;/font&gt;&lt;/p&gt;&lt;p style=&quot;border-color: var(--border-color); margin: 0px 0px 0px 4px;&quot;&gt;&lt;font style=&quot;font-size: 12px;&quot;&gt;seleccionarActividad(nombreAct: String)&lt;br&gt;&lt;/font&gt;&lt;/p&gt;&lt;p style=&quot;border-color: var(--border-color); margin: 0px 0px 0px 4px;&quot;&gt;&lt;font style=&quot;font-size: 12px;&quot;&gt;seleccionarActividadDt(nombreAct: String): DtActTur&lt;/font&gt;&lt;/p&gt;&lt;p style=&quot;border-color: var(--border-color); margin: 0px 0px 0px 4px;&quot;&gt;&lt;font style=&quot;font-size: 12px;&quot;&gt;verProveedorCA(nombreAct: String): &lt;/font&gt;&lt;font style=&quot;font-size: 12px;&quot;&gt;&lt;/font&gt;&lt;font style=&quot;font-size: 12px;&quot;&gt;Set &amp;lt;String&amp;gt;&lt;/font&gt;&lt;font style=&quot;font-size: 12px;&quot;&gt;&lt;/font&gt;&lt;/p&gt;&lt;p style=&quot;border-color: var(--border-color); margin: 0px 0px 0px 4px;&quot;&gt;confirmarAltaSalTur(nombreAct: String, datos :DtSalidaTuristica)&lt;/p&gt;&lt;p style=&quot;border-color: var(--border-color); margin: 0px 0px 0px 4px;&quot;&gt;seleccionarActividadST(nombreAct: String): &lt;font style=&quot;font-size: 12px;&quot;&gt;&lt;/font&gt;&lt;font style=&quot;font-size: 12px;&quot;&gt;Set &amp;lt;String&amp;gt;&lt;/font&gt;&lt;font style=&quot;font-size: 12px;&quot;&gt;&lt;/font&gt;&lt;/p&gt;&lt;p style=&quot;border-color: var(--border-color); margin: 0px 0px 0px 4px;&quot;&gt;seleccionarSalida(nombreSal: String): DtSalidaTuristica&lt;/p&gt;&lt;p style=&quot;border-color: var(--border-color); margin: 0px 0px 0px 4px;&quot;&gt;altaDepartamento(data: DtDepartamento)&lt;/p&gt;&lt;p style=&quot;border-color: var(--border-color); margin: 0px 0px 0px 4px;&quot;&gt;verActividadesCU(nickProv: String): &lt;font style=&quot;font-size: 12px;&quot;&gt;&lt;/font&gt;&lt;font style=&quot;font-size: 12px;&quot;&gt;Set &amp;lt;String&amp;gt;&lt;/font&gt;&lt;font style=&quot;font-size: 12px;&quot;&gt;&lt;/font&gt;&lt;/p&gt;&lt;p style=&quot;border-color: var(--border-color); margin: 0px 0px 0px 4px;&quot;&gt;verSalidasCU(nombreAct: String): &lt;font style=&quot;font-size: 12px;&quot;&gt;&lt;/font&gt;&lt;font style=&quot;font-size: 12px;&quot;&gt;Set &amp;lt;String&amp;gt;&lt;/font&gt;&lt;/p&gt;&lt;p style=&quot;border-color: var(--border-color); margin: 0px 0px 0px 4px;&quot;&gt;&lt;font style=&quot;font-size: 12px;&quot;&gt;verInscripcionesCU(nickTur: String): &lt;/font&gt;&lt;font style=&quot;font-size: 12px;&quot;&gt;Set &amp;lt;String&amp;gt;&lt;/font&gt;&lt;/p&gt;&lt;p style=&quot;margin:0px;margin-left:4px;&quot;&gt;&lt;/p&gt;" style="verticalAlign=top;align=left;overflow=fill;fontSize=12;fontFamily=Helvetica;html=1;whiteSpace=wrap;fillColor=#FFFFFF;strokeColor=#000000;" vertex="1" parent="1">
          <mxGeometry x="507" y="70" width="443" height="610" as="geometry" />
        </mxCell>
        <mxCell id="dAUSrfWz9pkDYstYwC68-3" value="" style="endArrow=open;html=1;rounded=0;exitX=0.107;exitY=1;exitDx=0;exitDy=0;dashed=1;entryX=0.968;entryY=-0.006;entryDx=0;entryDy=0;entryPerimeter=0;endFill=0;exitPerimeter=0;" edge="1" parent="1" source="dAUSrfWz9pkDYstYwC68-1" target="t0hAt-ErPhpD4sTweukp-1">
          <mxGeometry width="50" height="50" relative="1" as="geometry">
            <mxPoint x="415" y="-35" as="sourcePoint" />
            <mxPoint x="414" y="130" as="targetPoint" />
          </mxGeometry>
        </mxCell>
        <mxCell id="dAUSrfWz9pkDYstYwC68-4" value="" style="endArrow=open;html=1;rounded=0;exitX=1;exitY=0.75;exitDx=0;exitDy=0;dashed=1;endFill=0;" edge="1" parent="1" source="dAUSrfWz9pkDYstYwC68-1">
          <mxGeometry width="50" height="50" relative="1" as="geometry">
            <mxPoint x="600" y="-60" as="sourcePoint" />
            <mxPoint x="610" y="70" as="targetPoint" />
            <Array as="points">
              <mxPoint x="610" y="-60" />
            </Array>
          </mxGeometry>
        </mxCell>
        <mxCell id="dAUSrfWz9pkDYstYwC68-5" value="" style="endArrow=block;html=1;rounded=0;exitX=1.005;exitY=0.214;exitDx=0;exitDy=0;exitPerimeter=0;dashed=1;endFill=0;entryX=0;entryY=0.213;entryDx=0;entryDy=0;entryPerimeter=0;" edge="1" parent="1" source="t0hAt-ErPhpD4sTweukp-1" target="dAUSrfWz9pkDYstYwC68-2">
          <mxGeometry width="50" height="50" relative="1" as="geometry">
            <mxPoint x="436" y="180" as="sourcePoint" />
            <mxPoint x="500" y="198" as="targetPoint" />
          </mxGeometry>
        </mxCell>
        <mxCell id="WwdtE9RKTWUhPfPTeJh7-9" value="Turista" style="swimlane;fontStyle=1;align=center;verticalAlign=top;childLayout=stackLayout;horizontal=1;startSize=26;horizontalStack=0;resizeParent=1;resizeParentMax=0;resizeLast=0;collapsible=1;marginBottom=0;whiteSpace=wrap;html=1;fontSize=16;" vertex="1" parent="1">
          <mxGeometry x="-300" y="445" width="260" height="190" as="geometry" />
        </mxCell>
        <mxCell id="WwdtE9RKTWUhPfPTeJh7-10" value="&lt;font style=&quot;font-size: 15px;&quot;&gt;nacionalidad : String&lt;/font&gt;" style="text;strokeColor=none;fillColor=none;align=left;verticalAlign=top;spacingLeft=4;spacingRight=4;overflow=hidden;rotatable=0;points=[[0,0.5],[1,0.5]];portConstraint=eastwest;whiteSpace=wrap;html=1;fontSize=16;" vertex="1" parent="WwdtE9RKTWUhPfPTeJh7-9">
          <mxGeometry y="26" width="260" height="34" as="geometry" />
        </mxCell>
        <mxCell id="WwdtE9RKTWUhPfPTeJh7-11" value="" style="line;strokeWidth=1;fillColor=none;align=left;verticalAlign=middle;spacingTop=-1;spacingLeft=3;spacingRight=3;rotatable=0;labelPosition=right;points=[];portConstraint=eastwest;strokeColor=inherit;fontSize=16;" vertex="1" parent="WwdtE9RKTWUhPfPTeJh7-9">
          <mxGeometry y="60" width="260" height="10" as="geometry" />
        </mxCell>
        <mxCell id="WwdtE9RKTWUhPfPTeJh7-12" value="&lt;div style=&quot;font-size: 15px;&quot;&gt;modificarDatos(DtModUser)&lt;br&gt;&lt;/div&gt;&lt;div&gt;&lt;font style=&quot;font-size: 15px;&quot;&gt;getData(): DtUsuario&lt;/font&gt;&lt;br&gt;&lt;/div&gt;&lt;div&gt;&lt;font style=&quot;font-size: 15px;&quot;&gt;esProveedor(): Boolean&lt;/font&gt;&lt;br&gt;&lt;/div&gt;&lt;div style=&quot;font-size: 15px;&quot;&gt;crearInscripcion(SalidaTuristica,Int)&lt;/div&gt;&lt;div style=&quot;font-size: 15px;&quot;&gt;listarSalidas(): Set &amp;lt;String&amp;gt;&lt;br&gt;&lt;/div&gt;" style="text;strokeColor=none;fillColor=none;align=left;verticalAlign=top;spacingLeft=4;spacingRight=4;overflow=hidden;rotatable=0;points=[[0,0.5],[1,0.5]];portConstraint=eastwest;whiteSpace=wrap;html=1;fontSize=16;" vertex="1" parent="WwdtE9RKTWUhPfPTeJh7-9">
          <mxGeometry y="70" width="260" height="120" as="geometry" />
        </mxCell>
      </root>
    </mxGraphModel>
  </diagram>
</mxfile>
